# xmcd CD database file
#
# Track frame offsets:
#	187
#	29645
#	50900
#	85475
#	108850
#	145275
#
# Disc length: 2273 seconds
#
# Revision: 0
# Processed by: cddbd v1.5.2PL0 Copyright (c) Steve Scherf et al.
# Submitted via: CDex 1.70beta2
#
DISCID=5508df06
DTITLE=Eugen Cicero - Swinging Tschaikowsky
DYEAR=1966
DGENRE=Jazz
TTITLE0=「白鳥の湖」より前奏曲 (INTRODUKTION, AUS "DER SCHWANENSEE", 1.AKT, OP.20) 
TTITLE1=「白鳥の湖」よりピウ・モッソ (PIU MOSSO, AUS "DER SCHWANENSEE", 2.AKT, OP.20) 
TTITLE2=「白鳥の湖」よりアンダンテと主題 (ANDANTE UND THEMA, AUS "DER SCHWANENSEE", 2.AKT, OP.20)  
TTITLE3=「くるみ割り人形」より小前奏曲 (OUVERTURE MINIATURE, AUS DER "NUSSKNACKER-SUITE", OP.71A)  
TTITLE4=フランス古謡 (ALTFRANZOSISCHES LIED) 
TTITLE5=ナポリ風舞曲 (NEAPOLITANISCHES TANZLIED) 
EXTD=YEAR: 1966
EXTT0=
EXTT1=
EXTT2=
EXTT3=
EXTT4=
EXTT5=
PLAYORDER=
